<svg xmlns="http://www.w3.org/2000/svg" viewBox="0 0 24 24" class="wf-icon wf-icon-tactical wf-student">
  <polygon points="12 2 14.5 8 21 9 16 14 18 21 12 17 6 21 8 14 3 9 9.5 8" fill="#1e293b" stroke="#0f172a" stroke-width="1.8" stroke-linejoin="round"/>
<polygon points="12 2 14.5 8 12 12 9.5 8" fill="var(--wf-accent, #f59e0b)"/>
<polygon points="21 9 16 14 12 12 14.5 8" fill="#334155"/>
<polygon points="18 21 12 17 12 12 16 14" fill="var(--wf-accent, #f59e0b)"/>
<polygon points="6 21 8 14 12 12 12 17" fill="var(--wf-accent-light, #fbbf24)"/>
<polygon points="3 9 9.5 8 12 12 8 14" fill="var(--wf-accent, #f59e0b)"/>
</svg>
